<?xml version="1.0" standalone="no"?>
<!DOCTYPE svg PUBLIC "-//W3C//DTD SVG 20010904//EN"
 "http://www.w3.org/TR/2001/REC-SVG-20010904/DTD/svg10.dtd">
<svg version="1.0" xmlns="http://www.w3.org/2000/svg"
 width="720.000000pt" height="720.000000pt" viewBox="0 0 720.000000 720.000000"
 preserveAspectRatio="xMidYMid meet">
<metadata>
Created by potrace 1.11, written by Peter Selinger 2001-2013
</metadata>
<g transform="translate(0.000000,720.000000) scale(0.100000,-0.100000)"
fill="#000000" stroke="none">
<path d="M3059 6953 c0 -5 -3 -19 -6 -33 -9 -39 -9 -93 0 -116 6 -18 2 -22
-25 -30 -31 -9 -33 -12 -34 -59 -1 -43 2 -53 29 -77 16 -16 28 -30 26 -33 -2
-2 -31 -6 -64 -10 -33 -3 -71 -8 -85 -10 -14 -2 -45 -7 -70 -10 -60 -8 -275
-52 -325 -67 -22 -6 -42 -12 -45 -13 -147 -39 -467 -160 -495 -186 -5 -5 -14
-9 -21 -9 -18 0 -258 -135 -369 -208 -99 -65 -238 -169 -304 -227 -167 -146
-227 -206 -377 -376 -90 -102 -247 -326 -328 -469 -54 -95 -158 -312 -196
-410 -18 -47 -36 -94 -40 -105 -25 -63 -92 -291 -95 -325 -2 -14 -4 -26 -5
-27 -3 -4 -5 -12 -15 -58 -15 -76 -32 -178 -39 -230 -3 -22 -9 -62 -12 -90 -9
-67 -10 -574 -1 -650 14 -121 43 -298 63 -380 8 -33 17 -68 19 -79 2 -10 12
-44 21 -75 9 -31 18 -63 19 -71 4 -15 21 -66 35 -105 5 -11 13 -36 20 -55 7
-19 21 -54 31 -77 11 -24 19 -47 19 -51 0 -5 16 -41 35 -81 19 -39 35 -78 35
-86 0 -8 4 -15 8 -15 9 0 51 -84 42 -85 -3 0 1 -7 8 -15 15 -17 56 -82 57 -91
0 -3 26 -46 59 -96 32 -50 57 -93 55 -95 -2 -2 6 -15 19 -28 51 -55 72 -86 67
-98 -3 -7 -1 -11 4 -8 5 3 25 -16 45 -42 20 -26 53 -67 74 -91 20 -24 36 -49
34 -55 -2 -6 0 -8 4 -4 8 9 80 -71 76 -84 -1 -5 2 -7 8 -3 5 3 10 1 10 -5 0
-6 5 -8 12 -4 7 5 1 -6 -14 -24 -15 -18 -31 -47 -36 -65 -5 -18 -8 -219 -8
-447 1 -343 4 -421 16 -448 8 -17 18 -32 22 -32 5 0 8 -7 8 -16 0 -8 4 -13 9
-10 5 3 12 -1 15 -10 3 -8 10 -12 16 -9 5 3 10 1 10 -4 0 -6 11 -11 24 -11 13
0 27 -6 29 -12 4 -9 6 -9 6 1 1 11 5 10 16 -5 15 -19 15 -19 8 1 -6 18 -5 18
10 6 13 -10 17 -10 17 -1 0 10 3 10 14 1 11 -9 15 -9 19 1 4 10 6 10 6 1 1 -7
6 -13 12 -13 5 0 8 3 5 8 -2 4 13 7 34 7 21 0 37 -2 35 -6 -3 -3 8 -5 23 -3
15 1 27 3 27 4 0 1 8 3 18 5 9 2 15 -1 11 -6 -3 -5 0 -9 5 -9 6 0 11 6 11 13
0 8 4 7 10 -3 8 -12 10 -12 10 -1 0 9 4 10 13 4 10 -8 71 -10 80 -3 9 7 36 7
31 -1 -3 -5 0 -9 5 -9 6 0 11 6 11 13 0 8 4 7 10 -3 8 -12 10 -12 10 -1 0 9 4
10 13 4 10 -8 71 -10 80 -3 9 7 36 7 31 -1 -3 -5 0 -9 5 -9 6 0 11 6 11 13 0
8 4 7 10 -3 8 -12 10 -12 10 -1 0 9 4 10 13 4 10 -8 71 -10 80 -3 9 7 36 7 31
-1 -3 -5 0 -9 5 -9 6 0 11 6 11 13 0 9 3 8 9 -2 7 -11 10 -11 15 0 5 11 7 11
12 1 5 -10 9 -10 22 0 12 10 14 10 8 1 -4 -7 -2 -13 3 -13 6 0 11 4 11 8 0 4
11 8 24 8 14 0 22 -4 20 -8 -6 -10 10 -11 20 -1 10 10 37 13 31 3 -6 -10 15
-8 33 3 7 5 12 3 12 -4 0 -8 5 -7 17 2 11 10 14 10 9 2 -4 -7 -2 -13 3 -13 6
0 11 4 11 8 0 4 11 8 24 8 14 0 22 -4 20 -8 -6 -10 10 -11 20 -1 9 10 37 13
31 4 -2 -4 2 -8 10 -8 8 0 12 4 10 8 -6 9 15 6 32 -4 6 -4 14 -1 16 5 4 10 6
9 6 -1 1 -11 4 -11 16 -1 12 10 15 10 15 -1 0 -11 2 -11 10 1 6 10 10 11 10 3
0 -7 5 -13 11 -13 5 0 8 4 5 8 -2 4 8 8 24 7 15 0 26 -3 23 -7 -2 -5 1 -8 6
-8 6 0 11 6 11 13 0 8 4 7 10 -3 9 -13 10 -13 10 0 0 12 2 13 9 1 7 -11 9 -11
14 0 4 11 6 11 6 1 1 -8 6 -10 14 -5 17 11 38 13 32 3 -6 -10 15 -8 33 3 7 5
12 3 12 -4 0 -8 5 -7 17 2 11 10 14 10 9 2 -4 -7 -2 -13 3 -13 6 0 11 4 11 8
0 4 11 8 24 8 14 0 22 -4 20 -8 -6 -10 10 -11 20 -1 9 10 37 13 31 4 -2 -4 2
-8 10 -8 8 0 12 4 10 8 -6 9 15 6 32 -4 6 -4 14 -1 16 5 4 10 6 9 6 -1 1 -11
4 -11 16 -1 12 10 15 10 15 -1 0 -11 2 -11 10 1 6 10 10 11 10 3 0 -7 5 -13
11 -13 5 0 8 4 5 8 -2 4 8 8 24 7 15 0 26 -3 23 -7 -2 -5 1 -8 6 -8 6 0 11 6
11 13 0 8 4 7 10 -3 9 -13 10 -13 10 0 0 12 2 13 9 1 7 -11 9 -11 14 0 4 11 6
11 6 1 1 -8 6 -10 14 -5 18 11 36 12 43 2 3 -6 11 -5 20 2 11 9 14 8 14 -2 0
-11 2 -11 10 1 6 10 10 11 10 3 0 -7 5 -13 11 -13 5 0 8 4 5 8 -2 4 8 8 24 7
15 0 26 -3 23 -7 -2 -5 0 -8 6 -8 5 0 12 6 14 13 4 9 6 9 6 -1 1 -9 6 -10 20
-2 11 5 22 6 25 2 4 -7 61 -9 61 -2 0 1 8 3 18 5 9 2 15 -1 11 -6 -3 -5 0 -9
5 -9 6 0 11 6 11 13 0 8 4 7 10 -3 8 -12 10 -12 10 -1 0 9 4 10 13 4 10 -8 71
-10 80 -3 9 7 36 7 31 -1 -3 -5 0 -9 5 -9 6 0 11 6 11 13 0 8 4 7 10 -3 8 -12
10 -12 10 -1 0 9 4 10 13 4 10 -8 71 -10 80 -3 9 7 36 7 31 -1 -3 -5 0 -9 5
-9 6 0 11 6 11 13 0 8 4 7 10 -3 8 -12 10 -12 10 -1 0 9 4 10 13 4 10 -8 71
-10 80 -3 9 7 36 7 31 -1 -3 -5 0 -9 5 -9 6 0 11 6 11 13 0 9 3 8 9 -2 7 -11
9 -11 14 0 5 12 7 12 15 0 8 -11 10 -11 15 0 4 10 6 10 6 2 1 -7 6 -13 12 -13
5 0 8 4 5 8 -6 10 30 9 40 -1 11 -10 26 -8 20 2 -6 10 12 9 29 0 10 -6 15 -6
63 5 13 3 20 1 17 -5 -4 -5 -1 -9 4 -9 6 0 11 4 11 9 0 10 26 9 36 -2 11 -10
26 -9 20 2 -7 11 13 9 33 -3 9 -6 12 -5 7 2 -7 11 12 11 32 -1 7 -5 12 -3 12
5 0 9 3 9 10 -2 9 -13 10 -13 10 0 0 13 1 13 10 0 8 -12 10 -12 10 -1 0 11 3
11 17 0 15 -12 16 -12 8 1 -6 12 -5 13 6 2 14 -13 33 -17 25 -4 -2 4 6 8 20 8
13 0 24 -4 24 -8 0 -4 5 -8 11 -8 5 0 7 6 3 12 -6 10 -4 10 8 0 13 -10 17 -10
21 0 4 11 6 10 6 0 1 -8 6 -10 14 -5 17 10 38 13 32 4 -6 -10 36 -8 53 2 7 5
12 3 12 -5 0 -10 2 -10 9 1 7 11 9 11 14 0 4 -9 8 -10 14 -4 10 13 43 16 43 4
0 -5 5 -9 11 -9 5 0 8 4 5 8 -6 11 34 9 52 -1 7 -5 12 -3 12 5 0 9 3 9 10 -2
9 -13 10 -13 10 0 0 13 1 13 10 0 9 -13 10 -13 10 0 0 13 1 13 10 0 8 -12 10
-12 10 -1 0 10 3 11 14 2 11 -9 15 -9 19 1 4 10 6 10 6 1 1 -7 6 -13 12 -13 5
0 8 3 6 7 -3 5 6 8 19 8 13 0 24 -3 24 -7 0 -5 5 -8 11 -8 5 0 8 4 5 8 -6 11
34 9 52 -1 7 -5 12 -3 12 5 0 9 3 9 10 -2 9 -13 10 -13 10 0 0 13 1 13 10 0 9
-13 10 -13 10 0 0 13 1 13 10 0 8 -12 10 -12 10 -1 0 10 3 11 14 2 11 -9 15
-9 19 1 4 10 6 10 6 1 1 -7 6 -13 12 -13 5 0 8 3 6 8 -3 4 8 7 23 7 16 1 26
-3 24 -7 -3 -4 -1 -8 5 -8 5 0 12 6 14 13 4 9 6 8 6 -2 1 -11 4 -11 16 -1 12
10 15 10 15 -1 0 -11 2 -11 10 1 6 10 10 11 10 3 0 -7 5 -13 11 -13 5 0 8 4 5
8 -6 10 30 9 40 -1 11 -10 26 -8 20 2 -6 10 12 9 29 0 10 -6 15 -6 63 5 13 3
20 1 17 -5 -4 -5 -1 -9 4 -9 6 0 11 4 11 9 0 10 26 9 36 -2 11 -10 26 -9 20 2
-7 11 13 9 32 -2 7 -5 12 -3 12 5 0 11 2 10 9 0 7 -11 9 -11 14 2 5 12 13 13
37 6 27 -8 30 -7 20 5 -12 15 -4 20 23 16 4 0 7 6 7 14 0 8 5 15 10 15 6 0 10
6 10 14 0 8 4 18 10 21 6 4 7 -1 4 -12 -5 -14 -4 -15 4 -4 6 8 8 21 4 29 -3 9
-1 13 4 10 5 -4 7 15 5 44 -2 39 0 49 9 43 9 -6 11 -4 4 6 -14 23 -15 52 -2
61 7 4 8 8 3 8 -6 0 -11 9 -12 20 -1 13 2 18 10 13 9 -5 9 -3 1 8 -15 18 -15
152 0 161 7 5 7 8 0 8 -5 0 -11 18 -13 41 -1 30 1 39 10 33 8 -5 9 -3 3 7 -13
21 -16 59 -4 59 5 0 10 5 10 11 0 5 -4 7 -10 4 -6 -4 -10 5 -10 20 0 17 4 24
12 19 7 -5 8 -3 2 7 -13 22 -14 42 -1 58 9 12 9 13 0 7 -8 -4 -13 -1 -13 8 0
9 6 16 13 16 8 0 9 3 1 8 -7 4 -10 44 -10 104 1 54 -3 98 -7 98 -5 0 -5 5 -2
10 3 6 1 10 -5 10 -7 0 -9 7 -6 16 3 8 2 13 -3 10 -18 -12 -22 28 -4 43 11 10
13 11 5 1 -6 -7 -12 -19 -12 -24 0 -6 7 0 16 12 8 12 12 28 8 35 -5 7 0 6 11
-3 10 -8 16 -10 12 -3 -4 7 3 21 15 34 13 12 17 18 9 14 -10 -5 -12 -4 -7 4 4
6 11 9 16 6 8 -5 25 24 21 38 -1 4 6 7 15 5 9 -2 19 3 22 11 3 10 0 11 -9 5
-12 -7 -12 -5 0 9 15 18 26 23 16 7 -3 -6 1 -7 9 -4 9 3 14 10 11 15 -3 4 0
17 7 28 11 17 13 18 23 4 10 -14 12 -12 10 8 -1 13 6 31 16 40 10 9 15 20 11
24 -4 5 1 5 10 2 13 -4 16 -1 13 14 -3 14 0 19 8 16 15 -6 62 57 53 71 -7 12
28 44 38 35 4 -4 4 0 0 10 -4 11 0 19 10 23 9 3 14 9 12 13 -6 10 5 24 34 45
20 15 21 17 5 12 -18 -6 -19 -5 -3 7 10 8 14 18 10 22 -4 5 2 5 12 1 15 -5 17
-4 7 8 -9 11 -5 20 19 42 29 28 41 52 18 38 -7 -5 -8 -3 -4 5 5 7 14 10 22 7
8 -3 14 -1 14 4 0 6 -6 10 -12 10 -9 0 -8 4 2 10 8 5 11 10 6 10 -4 0 2 9 15
21 13 11 18 18 12 14 -18 -9 -16 10 2 25 8 6 20 8 27 4 10 -6 10 -5 0 8 -11
14 -11 21 4 43 9 14 24 30 33 36 14 9 14 10 -2 5 -12 -4 -17 -2 -14 6 2 7 10
12 16 11 6 -2 10 0 10 5 -4 21 2 32 14 26 9 -6 9 -4 -1 8 -10 13 -10 18 -1 24
8 5 9 3 4 -6 -5 -9 -4 -11 4 -6 9 6 9 11 1 21 -8 10 -7 16 7 24 10 6 14 11 9
11 -6 0 -1 7 10 16 10 8 13 13 7 9 -7 -3 -13 -1 -13 4 0 6 5 11 11 11 6 0 9 6
6 14 -3 8 1 17 10 20 9 4 13 14 10 26 -3 11 0 23 5 27 7 4 8 1 3 -8 -7 -11 -6
-11 9 1 16 13 16 15 1 20 -14 5 -14 8 4 29 11 12 17 29 15 36 -3 7 0 16 5 20
6 3 8 11 5 17 -5 8 -1 9 11 4 15 -5 16 -4 5 9 -7 8 -8 15 -3 15 6 0 9 12 7 26
-1 17 2 24 10 21 9 -4 11 2 8 19 -2 13 2 31 9 40 7 9 12 29 11 45 -3 22 1 29
15 29 13 0 15 2 5 9 -9 5 -11 17 -7 34 4 15 11 25 15 22 5 -3 7 6 4 20 -3 16
0 25 8 25 9 0 8 3 -2 10 -12 7 -12 10 -1 10 8 0 11 6 7 16 -3 8 -2 12 3 9 5
-3 13 0 17 6 4 7 3 9 -4 5 -15 -9 -26 12 -13 28 6 7 8 16 4 19 -3 4 -1 7 5 7
6 0 9 6 6 14 -3 8 0 24 6 36 10 18 10 21 -2 15 -10 -6 -10 -5 -1 5 6 7 9 19 6
28 -5 11 -3 13 8 7 12 -8 12 -6 0 8 -10 12 -10 17 -2 17 8 0 10 8 6 20 -4 12
-1 28 7 37 7 10 8 14 1 10 -7 -5 -9 0 -6 13 3 11 10 17 16 13 6 -4 7 -1 1 8
-11 19 -13 58 -2 65 4 3 4 14 -2 24 -7 14 -6 23 5 34 11 11 12 16 2 19 -9 4
-9 8 2 15 11 8 11 10 0 15 -12 5 -12 6 0 6 11 1 11 4 0 18 -10 11 -10 14 -1 9
6 -4 12 -2 12 3 0 6 -3 11 -7 11 -5 0 -8 16 -8 35 -1 27 3 34 14 30 11 -4 11
-3 2 9 -9 11 -9 15 1 19 8 4 7 6 -4 6 -15 1 -16 5 -8 27 13 33 13 37 -2 28
-10 -6 -10 -5 -1 8 7 8 10 18 6 21 -9 10 -10 66 0 60 9 -5 9 11 0 21 -9 9 -11
46 -2 40 4 -2 11 0 14 6 4 6 1 9 -6 8 -8 -2 -13 13 -15 42 -2 25 -5 58 -8 73
-4 21 -2 26 7 21 9 -6 9 -5 0 7 -7 8 -13 38 -15 67 -2 29 -7 52 -13 52 -5 0
-3 5 5 10 11 7 12 10 2 10 -8 0 -12 6 -9 13 2 6 0 20 -5 31 -6 11 -6 16 -1 13
5 -4 10 0 10 8 0 8 -5 11 -10 8 -6 -4 -8 0 -4 10 3 9 2 19 -3 22 -6 4 -10 13
-10 21 0 8 4 13 9 9 5 -3 3 9 -6 26 -8 17 -15 42 -15 55 0 13 -5 27 -10 30 -6
4 -5 10 3 15 10 6 11 9 2 9 -7 0 -13 9 -13 21 0 11 -4 29 -10 39 -5 10 -10 33
-12 51 -1 19 -8 42 -16 52 -13 14 -13 17 -1 17 10 1 8 4 -4 11 -15 9 -16 13
-5 27 7 9 8 13 3 9 -11 -9 -48 80 -40 94 4 5 1 9 -5 9 -6 0 -8 5 -5 10 3 6 2
10 -3 10 -5 0 -9 6 -9 13 -1 18 -37 111 -46 118 -4 3 -9 19 -10 36 -1 17 -6
31 -12 30 -5 -1 -9 4 -8 11 2 6 -2 12 -9 12 -6 0 -8 3 -5 7 4 3 2 12 -4 19 -6
8 -9 20 -5 29 3 8 0 14 -7 12 -7 -1 -11 4 -10 11 2 6 -2 12 -7 12 -6 0 -10 7
-10 15 0 8 -5 15 -11 15 -6 0 -9 9 -6 20 3 11 1 20 -4 20 -13 0 -39 56 -31 65
4 5 2 5 -5 1 -7 -4 -14 3 -19 16 -4 13 -18 39 -31 60 -14 20 -22 42 -18 48 3
6 3 9 -2 8 -4 -2 -9 1 -10 6 -1 5 -5 12 -10 15 -16 12 -56 75 -56 88 0 7 -3
11 -5 8 -3 -3 -21 19 -40 48 -20 28 -38 54 -41 57 -21 18 -59 79 -53 85 4 5 2
5 -5 1 -7 -4 -17 3 -24 16 -7 13 -20 30 -31 39 -10 9 -18 22 -18 28 0 7 -4 9
-10 6 -5 -3 -10 -1 -10 5 0 7 -13 25 -30 40 -16 15 -30 31 -30 35 0 3 -20 25
-45 47 -24 22 -42 46 -38 52 3 6 3 8 -1 4 -5 -4 -36 19 -70 51 -33 32 -78 74
-100 92 -21 19 -46 41 -55 49 -9 9 -35 29 -56 45 -22 17 -42 32 -45 35 -3 4
-27 22 -55 41 -27 18 -54 38 -60 42 -34 28 -205 135 -205 129 0 -4 -4 -2 -8 3
-7 10 -41 30 -132 77 -25 13 -48 28 -52 33 -4 6 -8 7 -8 3 0 -6 -109 43 -162
72 -10 6 -22 10 -28 10 -6 0 -29 9 -53 20 -74 34 -301 106 -427 135 -38 9
-158 35 -185 39 -16 3 -39 8 -50 10 -47 9 -137 19 -285 32 -19 1 -110 3 -202
4 -92 1 -170 5 -172 9 -3 4 10 15 28 24 32 15 34 18 31 62 -3 50 -18 75 -46
75 -24 0 -34 18 -19 35 14 17 6 90 -11 112 -7 7 -20 11 -29 8 -11 -3 -20 1
-24 10 -6 15 -25 21 -27 8z m2821 -5377 c0 -2 -7 -9 -15 -16 -13 -11 -14 -10
-9 4 5 14 24 23 24 12z"/>
<path d="M6029 1803 c-13 -16 -12 -17 4 -4 16 13 21 21 13 21 -2 0 -10 -8 -17
-17z"/>
<path d="M5905 1620 c-3 -6 1 -7 9 -4 18 7 21 14 7 14 -6 0 -13 -4 -16 -10z"/>
</g>
</svg>
